PathFileType	4	(X/Y/Z)	Patient4_TMGait_0pt7_02_right_02.trc.trc
DataRate	CameraRate	NumFrames	NumMarkers	Units	OrigDataRate	OrigDataStartFrame	OrigNumFrames
82.840236686391	82.840236686391	4	33	mm	82.840236686391	71	       141
Frame#	Time	Sacral			L.Shoulder			Chest			R.Shoulder			Neck			R.ASIS			L.ASIS			R.Thigh.Superior			R.Thigh.Lateral			R.Thigh.Inferior			R.Patella			L.Thigh.Superior			L.Thigh.Lateral			L.Thigh.Inferior			L.Patella			L.Shank.Superior			L.Shank.Lateral			L.Shank.Inferior			R.Shank.Superior			R.Shank.Lateral			R.Shank.Inferior			R.Heel			R.Midfoot.Superior			R.Midfoot.Lateral			R.Toe			L.Heel			L.Midfoot.Lateral			L.Midfoot.Superior			L.Toe			L.Elbow			L.Wrist			R.Elbow			R.Wrist			
		X1	Y1	Z1	X2	Y2	Z2	X3	Y3	Z3	X4	Y4	Z4	X5	Y5	Z5	X6	Y6	Z6	X7	Y7	Z7	X8	Y8	Z8	X9	Y9	Z9	X10	Y10	Z10	X11	Y11	Z11	X12	Y12	Z12	X13	Y13	Z13	X14	Y14	Z14	X15	Y15	Z15	X16	Y16	Z16	X17	Y17	Z17	X18	Y18	Z18	X19	Y19	Z19	X20	Y20	Z20	X21	Y21	Z21	X22	Y22	Z22	X23	Y23	Z23	X24	Y24	Z24	X25	Y25	Z25	X26	Y26	Z26	X27	Y27	Z27	X28	Y28	Z28	X29	Y29	Z29	X30	Y30	Z30	X31	Y31	Z31	X32	Y32	Z32	X33	Y33	Z33	

71	2.065000000000	838.163996906113	1006.271982469923	515.667816048636	1012.470609732686	1419.168315004768	309.910121664832	1134.393876164699	1343.438673889362	455.164068275556	1082.099231237278	1428.568738338148	635.780017748665	1039.960669085385	1480.628476079298	462.879116822966	1065.072878039630	931.738513344840	619.502055761507	1036.792166714129	941.910478599275	344.879571905957	1049.612978043635	717.496231076462	595.575325704538	939.559128792121	631.556835898430	660.819879365736	992.179948074430	561.823630913432	580.232877124592	970.780457369767	480.106072204356	585.219646952924	1113.184391002431	770.589729971868	383.440322449088	1075.550552125850	641.220738046268	300.109820362824	1179.681286835015	586.823921376820	364.835108248444	1208.451728691619	519.884885023274	360.516133684604	1190.501827477905	445.631674089858	348.853322280291	1122.207380703866	317.786547631567	296.148075354271	1206.371842065128	216.506399920193	351.265909847949	932.198986012813	399.097151957944	592.399442170732	853.397305270510	302.570576772567	656.838162607885	883.303720200218	204.789193492102	589.089975652459	737.089669720648	44.309583920511	560.247857197384	910.558353401481	96.717333494497	592.161346615672	822.445504915189	36.866350111881	631.806894586813	1030.810851472965	40.310203182632	614.589997377552	1118.361670845870	42.398214062458	387.295278192494	1193.098921949499	44.848899379246	307.947515674571	1266.817125228409	117.240467219862	330.963948579082	1399.142976090521	81.746718570304	306.115176100291	830.119322049271	1116.868606859488	231.664279177686	766.893636823263	864.250892704184	247.897452637925	1245.157969376244	1141.353264672865	748.795923971478	1443.657201950329	1249.276018138227	639.795257900667	
72	2.077071428571	839.018328928354	1004.772363896084	512.839938016908	1011.908431380845	1418.163414245938	307.588932963397	1133.846076262795	1343.072238315562	453.129965559367	1080.600233827864	1427.899187662930	633.563929657347	1038.817393158284	1479.751986269624	460.548055542433	1065.680548920955	930.650002007026	617.720805986840	1038.390764422200	940.411354977345	343.108412123219	1049.865125567888	716.225997512539	594.281471369648	938.834689162844	630.880179566455	659.174144039672	991.369728356892	560.523795766975	579.095468887727	969.108583458164	478.441783624215	583.949309277302	1114.062147954775	767.210602407069	381.293496289381	1072.997592894124	637.652783683149	300.353859074676	1177.562704092391	582.892900878653	364.175561057868	1204.633423647949	515.210292217179	360.885805830436	1186.087494285616	441.009934481656	349.408911530167	1115.852836281039	313.732895016357	298.128391982679	1198.929855392093	211.853374485621	353.434388175272	929.132076907398	397.953457941608	591.227895159864	848.899144934967	302.908054871474	656.106392253565	877.058880649612	204.430761057914	588.719881478930	728.733625569629	45.174598358554	560.528964845618	902.284713786274	96.678870631565	592.127172365248	814.110666255130	37.165854149280	632.047666763236	1022.398662993894	39.979073824588	614.666107295989	1107.958080634283	40.568402533371	390.765369871343	1182.041201477862	41.552682924797	310.620533332658	1257.806287159337	111.608228263181	333.525381031432	1389.186763891989	72.609314180430	307.238817605801	828.711591581867	1116.703086260623	230.000469293024	763.981701020572	864.429251827057	246.924151958222	1247.705396889802	1143.096390900440	744.716155050704	1440.070327110689	1259.389414788053	634.313118459167	
73	2.089142857143	839.793766477451	1003.635304021176	509.969168968867	1011.578333120530	1417.354291988337	305.093297677974	1133.494387330765	1342.859616376774	450.939160939936	1079.372625148181	1427.469163722896	631.182157731299	1037.958598059003	1479.108981916467	457.997172290139	1066.276192936653	929.732889515095	615.786951953728	1039.844460522119	939.291272700080	341.232330515656	1050.289410685013	715.169893285431	592.895070746807	938.354180621708	630.357399041145	657.366000588432	990.975895374088	559.361717317077	577.869862512848	967.892565969054	476.837069015135	582.564485819581	1114.976482352827	764.461623145048	378.998964563715	1070.669276404869	634.812076213114	300.419651382716	1175.635544504956	579.720259955046	363.490913498728	1201.076541728362	511.286064121011	361.225368527214	1181.936817734910	437.056454530212	349.864025063863	1109.880504533978	310.455818577691	299.559020386332	1191.484534549362	207.831801742838	355.284203846733	926.448034087894	396.913417104085	589.968377310989	844.663944721494	303.494786009800	655.290269203705	871.024391820013	204.274358785971	588.376576202791	720.447062642034	46.458763841998	560.893491510941	894.144626881984	96.709181744828	592.120414096243	805.838661440966	37.635203133537	632.318469211881	1014.014971326214	39.618879914426	614.743929731197	1097.297446019655	39.220650093741	393.468446104520	1170.894071030136	38.997924775994	312.689452736865	1248.561189524829	106.770025446643	335.803919710085	1379.096332235766	64.468428951081	308.288199319980	828.235036697291	1116.155982371296	228.123060769943	762.312614056964	864.176729047760	245.576545036029	1249.404529967398	1144.389927420463	740.893466699307	1435.946599522483	1267.896986320408	629.227959416498	
74	2.101214285714	840.459641280952	1002.935984609305	507.099704951029	1011.477312222277	1416.811157991587	302.461277138841	1133.342700308312	1342.829451355066	448.603658280499	1078.475795909281	1427.318056004551	628.657263209907	1037.418748678077	1478.751110704805	455.270123562555	1066.822368314967	929.055685083858	613.685886349141	1041.082119138673	938.612316852024	339.215653357612	1050.771023485509	714.399410642306	591.389052370074	938.050413687821	630.053717163271	655.426814262371	990.903764575877	558.418051415575	576.560708444997	967.063080729290	475.362927128890	581.123127296755	1115.867410669793	762.487973051636	376.611807816626	1068.685596383482	632.847697283352	300.182974363511	1173.909807868216	577.403399150807	362.704762197797	1197.834443690856	508.241142178254	361.390681777545	1178.141349688536	433.901717619426	350.109875329104	1104.479917787602	308.045895662967	300.304365908169	1184.266547615641	204.587847381871	356.702190741131	924.097788973897	396.038836907877	588.681327861202	840.647206175082	304.385055366236	654.433184585526	865.192908543899	204.384821166101	588.103486764276	712.246347448996	48.237510382120	561.350076371471	886.180903636211	96.835389882078	592.179394711963	797.637270692090	38.308414721653	632.621808056102	1005.660906650746	39.245093226654	614.818733850978	1086.799050350541	38.334601326880	395.358435495487	1160.079150395593	37.202279011021	314.123634056391	1239.376585622154	102.921369118963	337.676626985038	1369.210246127162	57.742814449156	309.197478784837	828.690372991431	1115.301230074470	226.008515308158	761.955959317714	863.532394844148	243.825767896670	1250.233040674235	1145.175121988739	737.397520503175	1431.389620061816	1274.783507166291	624.561474295041	
